<svg width="244" height="59" viewBox="0 0 244 59" fill="none" xmlns="http://www.w3.org/2000/svg">
<g id="Etoiles">
<g id="Rectangle 3" filter="url(#filter0_d_10_53)">
<path d="M4 25.5C4 11.4167 15.4167 0 29.5 0H214.5C228.583 0 240 11.4167 240 25.5C240 39.5833 228.583 51 214.5 51H29.5C15.4167 51 4 39.5833 4 25.5Z" fill="#D9D9D9"/>
<path d="M4.5 25.5C4.5 11.6929 15.6929 0.5 29.5 0.5H214.5C228.307 0.5 239.5 11.6929 239.5 25.5C239.5 39.3071 228.307 50.5 214.5 50.5H29.5C15.6929 50.5 4.5 39.3071 4.5 25.5Z" stroke="black"/>
</g>
<path id="Star 1" d="M38.0799 16.6766C38.652 14.78 41.3374 14.78 41.9095 16.6766L42.7279 19.3895C42.9826 20.234 43.7605 20.8119 44.6426 20.8119H47.5893C49.4906 20.8119 50.3192 23.2152 48.8218 24.387L46.1886 26.4476C45.5391 26.9559 45.2682 27.8107 45.5064 28.6003L46.451 31.7315C47.0148 33.6006 44.8411 35.0873 43.3036 33.8842L41.2273 32.2593C40.5032 31.6927 39.4862 31.6927 38.7621 32.2593L36.6858 33.8842C35.1483 35.0873 32.9746 33.6006 33.5384 31.7315L34.483 28.6003C34.7212 27.8107 34.4503 26.9559 33.8008 26.4476L31.1676 24.387C29.6702 23.2152 30.4988 20.8119 32.4001 20.8119H35.3467C36.2288 20.8119 37.0068 20.234 37.2615 19.3895L38.0799 16.6766Z" fill="black"/>
<path id="Star 2" d="M81.8995 16.6766C82.4716 14.78 85.157 14.78 85.7291 16.6766L86.5475 19.3895C86.8022 20.234 87.5802 20.8119 88.4623 20.8119H91.4089C93.3102 20.8119 94.1388 23.2152 92.6414 24.387L90.0082 26.4476C89.3587 26.9559 89.0878 27.8107 89.326 28.6003L90.2706 31.7315C90.8344 33.6006 88.6607 35.0873 87.1232 33.8842L85.0469 32.2593C84.3228 31.6927 83.3058 31.6927 82.5817 32.2593L80.5054 33.8842C78.9679 35.0873 76.7942 33.6006 77.358 31.7315L78.3026 28.6003C78.5408 27.8107 78.2699 26.9559 77.6204 26.4476L74.9872 24.387C73.4898 23.2152 74.3184 20.8119 76.2198 20.8119H79.1664C80.0485 20.8119 80.8264 20.234 81.0811 19.3895L81.8995 16.6766Z" fill="black"/>
<path id="Star 3" d="M158.271 16.6766C158.843 14.78 161.528 14.78 162.1 16.6766L162.919 19.3895C163.174 20.234 163.952 20.8119 164.834 20.8119H167.78C169.682 20.8119 170.51 23.2152 169.013 24.387L166.38 26.4476C165.73 26.9559 165.459 27.8107 165.697 28.6003L166.642 31.7315C167.206 33.6006 165.032 35.0873 163.495 33.8842L161.418 32.2593C160.694 31.6927 159.677 31.6927 158.953 32.2593L156.877 33.8842C155.339 35.0873 153.166 33.6006 153.729 31.7315L154.674 28.6003C154.912 27.8107 154.641 26.9559 153.992 26.4476L151.359 24.387C149.861 23.2152 150.69 20.8119 152.591 20.8119H155.538C156.42 20.8119 157.198 20.234 157.453 19.3895L158.271 16.6766Z" fill="black"/>
<path id="Star 5" d="M120.085 16.6766C120.657 14.78 123.343 14.78 123.915 16.6766L124.733 19.3895C124.988 20.234 125.766 20.8119 126.648 20.8119H129.595C131.496 20.8119 132.324 23.2152 130.827 24.387L128.194 26.4476C127.544 26.9559 127.274 27.8107 127.512 28.6003L128.456 31.7315C129.02 33.6006 126.846 35.0873 125.309 33.8842L123.233 32.2593C122.509 31.6927 121.491 31.6927 120.767 32.2593L118.691 33.8842C117.154 35.0873 114.98 33.6006 115.544 31.7315L116.488 28.6003C116.726 27.8107 116.456 26.9559 115.806 26.4476L113.173 24.387C111.676 23.2152 112.504 20.8119 114.405 20.8119H117.352C118.234 20.8119 119.012 20.234 119.267 19.3895L120.085 16.6766Z" fill="black"/>
<path id="Star 4" d="M202.091 16.6766C202.663 14.78 205.348 14.78 205.92 16.6766L206.738 19.3895C206.993 20.234 207.771 20.8119 208.653 20.8119H211.6C213.501 20.8119 214.33 23.2152 212.832 24.387L210.199 26.4476C209.55 26.9559 209.279 27.8107 209.517 28.6003L210.462 31.7315C211.025 33.6006 208.852 35.0873 207.314 33.8842L205.238 32.2593C204.514 31.6927 203.497 31.6927 202.773 32.2593L200.696 33.8842C199.159 35.0873 196.985 33.6006 197.549 31.7315L198.494 28.6003C198.732 27.8107 198.461 26.9559 197.811 26.4476L195.178 24.387C193.681 23.2152 194.509 20.8119 196.411 20.8119H199.357C200.239 20.8119 201.017 20.234 201.272 19.3895L202.091 16.6766Z" fill="black"/>
</g>
<defs>
<filter id="filter0_d_10_53" x="0" y="0" width="244" height="59" filterUnits="userSpaceOnUse" color-interpolation-filters="sRGB">
<feFlood flood-opacity="0" result="BackgroundImageFix"/>
<feColorMatrix in="SourceAlpha" type="matrix" values="0 0 0 0 0 0 0 0 0 0 0 0 0 0 0 0 0 0 127 0" result="hardAlpha"/>
<feOffset dy="4"/>
<feGaussianBlur stdDeviation="2"/>
<feComposite in2="hardAlpha" operator="out"/>
<feColorMatrix type="matrix" values="0 0 0 0 0 0 0 0 0 0 0 0 0 0 0 0 0 0 0.25 0"/>
<feBlend mode="normal" in2="BackgroundImageFix" result="effect1_dropShadow_10_53"/>
<feBlend mode="normal" in="SourceGraphic" in2="effect1_dropShadow_10_53" result="shape"/>
</filter>
</defs>
</svg>
